<svg viewBox="0 0 52 57" fill="none" xmlns="http://www.w3.org/2000/svg"
     aria-label="rhogam.bio logo" role="img">

  <!-- Fab arm left -->
  <path d="M 20 26 C 15 18 9 10 5 3"
        stroke="#0f172a" stroke-width="3" stroke-linecap="butt"/>

  <!-- Fab arm right -->
  <path d="M 32 26 C 37 18 43 10 47 3"
        stroke="#0f172a" stroke-width="3" stroke-linecap="butt"/>

  <!-- Hinge region -->
  <path d="M 20 26 Q 26 21 32 26"
        stroke="#0f172a" stroke-width="3" stroke-linecap="round"/>

  <!-- DNA Strand A (dark navy) -->
  <path d="M 20 26 C 20 30.7 32 30.7 32 35.3 C 32 40 20 40 20 44.7 C 20 49.3 32 49.3 32 54"
        stroke="#0f172a" stroke-width="2.2" stroke-linecap="round"/>

  <!-- DNA Strand B (indigo) -->
  <path d="M 32 26 C 32 30.7 20 30.7 20 35.3 C 20 40 32 40 32 44.7 C 32 49.3 20 49.3 20 54"
        stroke="#6366f1" stroke-width="2.2" stroke-linecap="round"/>

  <!-- Base pair rungs -->
  <line x1="20" y1="35.3" x2="32" y2="35.3" stroke="#6366f1" stroke-width="1.5" stroke-linecap="round" opacity="0.65"/>
  <line x1="20" y1="44.7" x2="32" y2="44.7" stroke="#6366f1" stroke-width="1.5" stroke-linecap="round" opacity="0.65"/>
  <line x1="20" y1="54"   x2="32" y2="54"   stroke="#6366f1" stroke-width="1.5" stroke-linecap="round" opacity="0.65"/>
</svg>
