<svg xmlns="http://www.w3.org/2000/svg" width="135" height="150" viewBox="0 0 135 149" role="img" aria-label="Reference logo">
  <title>Reference logo</title>
  <g fill-rule="nonzero">
    <path d="M85.422 134.457c-1.262 1.59-2.484 3.211-3.813 4.742-.457.528-1.175.832-1.855 1.258-.285.063-.488.11-.738.148-.391-.02-.735-.03-1.114-.066-.414-.184-.8-.34-1.21-.523-1.004-.817-1.407-1.836-1.262-3.114.367-.8.71-1.558 1.09-2.328.082-.11.136-.203.222-.32.778-.992 1.524-1.961 2.297-2.953.234-.313.445-.598.637-.899 1.101-1.742 2.074-3.547 2.676-5.566.27-1.094.523-2.16.789-3.27.05-.39.09-.734.144-1.101.016-.082.012-.149.028-.262.027-.387.035-.726.058-1.105-.11-1.297-.23-2.547-.348-3.844-.093-.461-.16-.89-.293-1.297-.214-.648-.468-1.285-.69-1.969-.813-2.41-2.106-4.5-3.763-6.422-.535-.582-1.058-1.129-1.593-1.707a747 747 0 0 0-5.672-4.492c-.301-.238-.637-.433-.946-.672.008-.027.016-.078.047-.086.059-.03.086-.058.16-.086 1.973-1.043 3.903-2.078 5.84-3.105.168-.09.375-.102.575-.125.035.05.066.066.124.094.118.093.22.152.333.242.039.05.07.066.128.09.118.094.22.152.329.238.058.047.105.066.175.125.86.684 1.7 1.336 2.551 2.023.203.192.39.348.594.54.144.136.277.242.418.378.117.114.219.196.336.313.5.512.984.988 1.48 1.5.465.562.914 1.086 1.375 1.652.563.817 1.114 1.598 1.672 2.414.16.297.32.559.484.856.532 1.066 1.06 2.094 1.59 3.16.305.879.61 1.715.914 2.59.059.242.121.445.18.683.012.082.024.133.031.211.02.09.043.149.075.254.171.875.332 1.703.492 2.578.09 1.48.183 2.914.265 4.383-.011.09-.007.145-.02.227-.019.16-.019.289-.034.46-.04.313-.067.587-.094.891.023.121.05.207.043.309-.063.16-.09.305-.137.492-.176.992-.336 1.938-.515 2.906-.028.082-.036.141-.067.239-.074.23-.12.425-.2.652-.233.766-.44 1.5-.67 2.262-.267.675-.509 1.316-.774 1.988-.047.098-.07.172-.118.27-.168.343-.304.66-.476 1-.344.644-.656 1.261-1 1.894-.05.074-.07.137-.121.223-.11.172-.188.32-.293.492-.078.113-.13.195-.203.3-.063.09-.098.165-.133.235m0 0" fill="#2563EB"/>
    <path d="M114.586 6.453c.082.024.164.047.328.086 1.711.527 2.676 1.629 3.035 3.332.012.5.02.95.004 1.434-.32.672-.504 1.402-.933 1.937-2.528 3.176-5.114 6.301-7.672 9.45-1.328 1.632-2.641 3.269-3.996 4.921a187 187 0 0 0-2.547 3.114c-.266.332-.489.695-.762 1.054-.074.086-.121.157-.195.254-.895 1.055-1.762 2.082-2.657 3.133-1.25 1.539-2.464 3.059-3.71 4.59-.508.617-.985 1.219-1.493 1.84a45 45 0 0 0-1.035 1.238c-1.195 1.477-2.39 2.953-3.617 4.45-.207.25-.383.48-.586.73-.832 1.015-1.633 2.011-2.469 3.03-.367.434-.703.852-1.031 1.263.531.746 1.027 1.437 1.535 2.171.61 1.102 1.211 2.165 1.817 3.266.23.54.457 1.04.683 1.578.18.508.36.969.54 1.465.019.094.038.152.066.258.261.984.523 1.922.78 2.906.138 1.133.282 2.219.419 3.309.05.383.074.77.097 1.207-.03.543-.05 1.031-.074 1.574-.113 1.219-.218 2.383-.34 3.582-.257.988-.492 1.938-.761 2.918-.27.8-.508 1.574-.77 2.367-.043.086-.058.149-.105.235-.121.273-.215.52-.336.793-.582 1.097-1.137 2.164-1.727 3.253-.36.532-.683 1.04-1.043 1.567-1.3 1.937-2.879 3.586-4.535 5.219-.566.492-1.098.968-1.668 1.445-1.039.742-2.035 1.488-3.066 2.238-.086.047-.137.086-.223.137-.457.262-.863.539-1.293.773a579 579 0 0 1-5.66 3.024c-.246.113-.45.222-.68.332-.02 0-.047.031-.082.035-.136.066-.238.133-.363.195-.023-.004-.055.031-.09.035-.14.067-.246.137-.379.204-.117.054-.203.101-.328.16-.195.101-.348.195-.543.293-.207.101-.375.199-.582.308-.973.57-1.906 1.13-2.879 1.692-.68.453-1.32.894-2 1.347-1.418 1.266-2.797 2.52-4.215 3.79-.75.984-1.465 1.949-2.203 2.93-1.254 1.991-2.16 4.093-2.601 6.429-.7 2.875-.543 5.695.168 8.5.98 3.832 2.98 7.117 5.613 10.027 1.047 1.156 1.637 2.406 1.469 3.973-.102.297-.184.605-.317.894-1.054 2.313-4.156 2.817-5.828.867-1.406-1.636-2.66-3.402-4.02-5.167-.187-.297-.34-.536-.484-.774a57 57 0 0 1-1.137-1.95c-.066-.206-.144-.374-.226-.581-.438-1.063-.879-2.09-1.316-3.16-.293-1.063-.583-2.078-.868-3.137-.172-1.106-.351-2.168-.52-3.273-.01-.317-.034-.59-.05-.907-.008-.168-.02-.289-.02-.46.008-.567.008-1.083.016-1.641.121-1.125.227-2.2.352-3.313.25-1.09.484-2.148.75-3.234.382-1.016.742-2 1.129-3.012.078-.172.128-.316.203-.48.043-.082.062-.145.097-.215.016-.008.008-.047.043-.074.461-.852.895-1.676 1.36-2.52.738-1.059 1.445-2.094 2.18-3.148 1.062-1.16 2.093-2.301 3.156-3.461 3.062-2.844 6.492-5.086 10.168-6.98 1.472-.759 2.945-1.52 4.46-2.286.465-.238.891-.477 1.352-.719 1.524-1.004 3.008-2.008 4.531-3.02.34-.257.664-.484.95-.75.347-.323.66-.679 1.027-1.027.293-.238.547-.468.84-.71.074-.07.12-.13.195-.2.145-.148.254-.281.395-.426.578-.687 1.129-1.363 1.71-2.054.227-.305.418-.59.633-.895.336-.539.649-1.054.985-1.597.242-.532.453-1.04.707-1.543.074-.04.12-.075.14-.125 1.555-3.555 2.036-7.246 1.258-11.055-.824-4.05-2.875-7.469-5.71-10.434-1.13-1.175-1.716-2.484-1.516-4.144.332-.707.539-1.453.972-2.04 1.09-1.476 2.285-2.878 3.434-4.316 1.683-2.113 3.363-4.23 5.07-6.359.059-.074.09-.133.153-.203.082-.094.132-.168.218-.262.668-.863 1.305-1.707 1.98-2.574.458-.52.876-1.02 1.329-1.543.473-.617.914-1.215 1.39-1.809.372-.406.704-.816 1.067-1.238.246-.32.469-.621.707-.95.234-.304.445-.573.691-.855.153-.144.27-.277.414-.433.23-.266.438-.508.63-.762.48-.617.952-1.238 1.46-1.863.078-.078.125-.153.211-.227.621-.738 1.207-1.469 1.824-2.215.086-.101.137-.18.22-.273.089-.098.144-.184.237-.29.114-.14.196-.26.309-.398.098-.148.164-.285.266-.421.765-.93 1.496-1.856 2.27-2.79.316-.335.589-.667.902-1.019.656-.809 1.28-1.598 1.937-2.406 1.55-1.895 3.066-3.77 4.613-5.66.192-.227.348-.438.54-.672.855-.903 1.68-1.782 2.546-2.66.356-.122.664-.235.973-.352.16-.02.316-.04.55-.066.169-.028.262-.043.352-.063.09.008.176.012.34.027.207.008.336.008.465.012m0 0" fill="#1B263B"/>
    <path d="M8.734 19.191c.375-.73.75-1.41 1.176-2.14.625-.383 1.2-.715 1.824-1.043.391-.051.739-.11 1.137-.153 1.45.032 2.578.606 3.457 1.68.45.547.914 1.082 1.383 1.66.488.594.96 1.149 1.45 1.739 1.362 1.644 2.71 3.25 4.07 4.89.734.895 1.456 1.758 2.195 2.656.117.149.219.262.332.41.844 1.04 1.676 2.04 2.52 3.075.144.191.273.348.421.539.625.758 1.235 1.48 1.856 2.234.105.13.203.227.3.32 0-.003-.007 0 .004.036.422.531.836 1.023 1.266 1.554.414.508.813.98 1.223 1.489.12.156.234.281.359.441.441.547.871 1.055 1.316 1.602.43.535.848 1.03 1.274 1.566.723.89 1.433 1.746 2.156 2.633.152.195.293.36.438.559.828 1.062 1.754 2.015 2.148 3.359.234.96.117 1.855-.144 2.77-.579 1.331-1.551 2.152-2.961 2.535-.575.003-1.098.015-1.657.003-1.039-.261-1.855-.77-2.511-1.59-1.125-1.41-2.301-2.78-3.465-4.206-.461-.563-.91-1.094-1.371-1.657a452 452 0 0 0-3.625-4.43c-.09-.109-.223-.183-.344-.312-.129-.148-.266-.25-.371-.375a159 159 0 0 1-1.996-2.531c-.04-.086-.074-.14-.121-.23-1.79-2.184-3.567-4.333-5.348-6.481-.27-.332-.54-.668-.852-1.055-.593-.71-1.14-1.363-1.703-2.05-.504-.618-.988-1.2-1.488-1.813-.129-.16-.246-.285-.367-.437-.016-.06-.043-.079-.09-.114-.133-.164-.25-.289-.375-.453-.113-.144-.215-.254-.324-.379-.04-.035-.067-.039-.102-.07-.695-.875-1.383-1.707-2.078-2.578-.18-.203-.351-.375-.52-.543-.171-.64-.347-1.281-.527-2.004-.02-.211-.031-.34-.047-.473.032-.191.059-.387.082-.633m0 0" fill="#1B263B"/>
    <path d="M25.973 9.707q2.581 3.21 5.164 6.422c.781.969 1.566 1.93 2.394 2.95.61.741 1.172 1.433 1.739 2.12.003-.004-.004 0 .007.035.078.106.145.176.227.278.262.332.516.633.781.965.645.804 1.281 1.57 1.922 2.367.098.129.188.226.29.36.108.144.21.25.323.394.907 1.117 1.797 2.199 2.696 3.308.043.078.082.125.129.207.761.953 1.52 1.864 2.289 2.813.23.289.449.543.683.836.653.824 1.29 1.613 1.942 2.437.402.5.793.965 1.199 1.469.488.617.965 1.2 1.457 1.816.555.696 1.097 1.352 1.656 2.047.328.418.645.797.969 1.215.785.996 1.562 1.953 2.351 2.945.114.149.211.262.32.41.41.567.81 1.094 1.173 1.645-1.641 1.066-2.965 2.418-4.235 3.832a32 32 0 0 1-1.465 1.543c-1.172-1.422-2.308-2.82-3.453-4.215-1.773-2.16-3.55-4.316-5.34-6.511-3.117-3.84-6.214-7.653-9.328-11.45-1.261-1.543-2.55-3.062-3.84-4.629-.753-.93-1.5-1.824-2.253-2.746-.082-.11-.153-.183-.235-.3-1.777-2.204-3.547-4.375-5.324-6.579a184 184 0 0 0-1.715-2.058c-.004.004.008 0-.004-.035-.074-.11-.144-.18-.222-.282-.165-.226-.32-.418-.485-.656-.555-1.039-.633-2.097-.402-3.195.586-1.617 1.648-2.711 3.426-2.957 1.527-.211 2.765.37 3.77 1.484.316.348.589.735.925 1.153.183.222.328.39.469.562m0 0" fill="#1B263B"/>
    <path d="M79.867 116.469c.469.535.707 1.14.594 1.906-.23.398-.461.75-.75 1.148-.465.157-.867.32-1.281.368-.578.058-1.16.03-1.793.03-1.078-.003-2.102.005-3.176.005-1.078-.004-2.102 0-3.176-.004-1.078-.004-2.101.004-3.18 0a293 293 0 0 0-3.234.012c-2.226-.012-4.45-.008-6.676-.032-1.484-.015-2.43-1.355-1.879-2.672.407-.976 1.246-1.23 2.32-1.214 1.083-.008 2.071-.016 3.11-.012 1.074.004 2.094-.004 3.16.008 4.797.023 9.551.035 14.305.023.605-.004 1.16.082 1.656.434M76.703 127.613c-.098.051-.195.098-.363.176-.195.07-.32.11-.5.145-3.992-.004-7.93.004-11.871 0-1.563 0-3.13-.032-4.692-.047-.78-.387-1.289-.973-1.265-1.88.027-1.093.851-1.862 1.96-1.89.208-.004.415-.004.723-.008 1.125-.007 2.149-.011 3.227-.007 1.039 0 2.023-.008 3.062-.004 1.153.004 2.25-.004 3.403 0 1.078.004 2.101-.004 3.175 0 1.024.09 1.997.164 2.993.273.23.234.445.442.668.688.425 1.004.27 1.847-.52 2.554M59.328 108.914c.52-.437 1.094-.578 1.746-.57 1.992.02 3.989 0 6.086-.004 1.13-.008 2.153-.016 3.227-.012 1.078.008 2.101-.004 3.175 0 .524.016 1-.035 1.458.04.425.07.894.187 1.23.437.777.57.855 1.574.273 2.636-.12.118-.21.22-.343.332-.47.125-.895.317-1.328.336-1.075.047-2.153.012-3.227.016-2.586.008-5.172.016-7.809.012-1.074 0-2.097.008-3.164 0-.16-.016-.277-.024-.422-.051-.09-.035-.152-.047-.246-.082-.113-.063-.199-.102-.285-.14-1.082-.946-1.203-1.86-.37-2.95m0 0" fill="#2563EB"/>
    <path d="M46.613 57.594a1361 1361 0 0 0 3.395-5.41c.484-.559.969-1.079 1.441-1.606 1.27-1.414 2.594-2.766 4.27-3.812.523.578.96 1.168 1.433 1.722.68.797 1.262 1.633 1.47 2.73.148 1.216-.227 2.243-.856 3.231-1.051 1.196-2.137 2.324-3.075 3.563-1.363 1.804-2.421 3.789-3.046 6.02-.243 1.07-.461 2.105-.696 3.187-.027.234-.035.422-.066.656-.008.957.004 1.871 0 2.824.012.203.039.367.062.578.024.239.055.43.07.653.005.086.024.144.036.25.09.511.18.976.273 1.488.364 1.098.723 2.148 1.082 3.242 1.059 2.485 2.551 4.633 4.477 6.524.183.187.36.343.547.535 1.117.965 2.187 1.937 3.328 2.82.949.734 1.984 1.36 2.984 2.035.625.41 1.25.824 1.942 1.281-.836.457-1.637.887-2.43 1.332-1.18.665-2.367 1.329-3.527 2.028-.344.207-.594.222-.914-.012-.348-.254-.731-.46-1.16-.73a459 459 0 0 1-4.47-3.36c-.64-.633-1.265-1.23-1.898-1.863-1.137-1.465-2.262-2.898-3.394-4.371-.192-.324-.375-.61-.578-.93-.395-.746-.77-1.46-1.141-2.219-.266-.718-.578-1.386-.793-2.082-.441-1.425-.828-2.867-1.234-4.351-.055-.465-.118-.883-.168-1.332-.016-.086-.036-.145-.047-.246-.008-.164-.024-.281-.032-.446-.02-.285-.046-.52-.066-.796-.004-.122-.02-.204-.023-.336.027-1.07.05-2.086.082-3.145.007-.129.007-.21.02-.336.01-.125.01-.21.03-.316.024-.086.028-.149.043-.254.059-.43.102-.813.164-1.235.082-.386.141-.738.223-1.125.195-.726.367-1.414.543-2.101.102-.3.203-.602.336-.977.473-1.152.918-2.23 1.363-3.308m0 0" fill="#2563EB"/>
    <path d="M80.074 70.293c-.058.023-.12.043-.254.09-.37.05-.672.094-.972.094-7.676.003-15.352.007-23.059-.016-.168-.055-.297-.086-.46-.137-.118-.066-.204-.113-.306-.187-.18-.188-.347-.348-.527-.547-.11-.266-.203-.492-.285-.77.004-.203 0-.363.012-.558.097-.254.18-.477.289-.715.086-.094.136-.172.222-.27.477-.476 1.028-.656 1.66-.636.376.007.747-.016 1.176-.016 1.075.004 2.098-.004 3.125-.012 1.996.012 3.996.028 5.993.032q6.058.004 12.109.003c.664-.003 1.281.102 1.8.672.794 1.168.614 2.075-.523 2.973m0 0" fill="#2563EB"/>
    <path d="M73.398 58.941c.832.008 1.66.012 2.493.024 1.093.02 1.937.875 1.925 1.941-.011 1.043-.843 1.852-1.945 1.856-3.965.011-7.93.008-12 .015-1.129.004-2.152.012-3.23.008-.278-.012-.5-.02-.727-.015-.812.02-1.625.046-2.297-.594-.187-.461-.36-.89-.512-1.352.157-.437.297-.836.473-1.254.52-.441 1.07-.636 1.723-.61.648.028 1.304-.01 2-.01.129.003.215-.005.328-.005.047.004.066 0 .137.004.734.004 1.418 0 2.156.004 1.113 0 2.176-.008 3.285-.004.242.004.438-.004.66 0 .047 0 .067-.004.137 0 .547.004 1.043 0 1.582.004.168.004.289-.004.45-.004.128.004.214-.004.35 0 1.04.004 2.028-.004 3.012-.008m0 0" fill="#2563EB"/>
    <path d="M123.492 25.453q-2.291 2.776-4.582 5.55c-.191.231-.379.47-.613.755-1.16 1.433-2.274 2.812-3.422 4.207-.652.793-1.273 1.566-1.926 2.36-.172.195-.312.37-.453.546a771 771 0 0 1-3.64 4.477c-.122.14-.208.257-.293.379.003.003 0-.004-.036.015-.308.383-.586.75-.879 1.149-.085.144-.16.261-.27.386-.155.133-.273.254-.425.391-.433.562-.832 1.105-1.273 1.656-1.094 1.285-2.149 2.567-3.23 3.867-.184.227-.345.434-.532.664-.68.54-1.328 1.06-2.016 1.583-1.52.53-2.882.308-4.168-.622-.191-.195-.367-.359-.554-.558-.075-.11-.14-.184-.207-.27 0-.015-.028-.031-.035-.066-.067-.117-.126-.195-.184-.309-.078-.172-.152-.312-.227-.453-.316-1.015-.37-2.035 0-3.133.461-.761.899-1.445 1.332-2.129.266-.312.532-.62.84-.988 1.766-2.191 3.492-4.324 5.219-6.46 1.316-1.606 2.637-3.212 3.95-4.821.937-1.149 1.866-2.3 2.843-3.504.394-.496.742-.941 1.129-1.406.7-.856 1.367-1.696 2.031-2.535l.496-.563 2.457-3.043c1.344-1.633 2.707-3.25 4.02-4.906.695-.879 1.574-1.418 2.676-1.727 1.539-.203 2.925.059 3.921 1.282.438.539.672 1.238 1.02 1.898.031.492.043.945.047 1.492-.012.176-.016.262-.02.348-.156.418-.312.84-.472 1.305-.407.543-.809 1.043-1.254 1.597-.172.23-.305.406-.473.602-.289.34-.543.66-.797.984m0 0" fill="#1B263B"/>
    <path d="M64.895 74.398c.683 0 1.367.004 2.097 0 .051-.003.106.008.176.016 1.102-.004 2.137-.012 3.168-.02.195.008.39.016.684.024.71-.008 1.32-.012 1.93-.02l.566.028c1.086.031 2.074.062 3.062.094.317.277.637.558.988.898.094.191.157.32.215.453l.043.422.016.207c-.02.094-.043.188-.059.316-.355.45-.71.864-1.148 1.305-.281.059-.488.106-.692.11-.808.019-1.62.027-2.48.027-1.074-.008-2.098 0-3.176-.004-.887-.004-1.722.004-2.605 0-.243-.004-.434 0-.66-.004-.051-.004-.07.004-.145 0-1.047 0-2.04.008-3.078.008-1.067-.008-2.09-.004-3.164-.008-.367-.012-.688-.023-1.004-.012-.703.024-1.395.016-1.977-.527-.18-.309-.343-.578-.504-.898-.105-.66.059-1.211.41-1.743.2-.16.364-.304.528-.445.531-.066 1.062-.133 1.691-.2.22-.007.344-.015.47-.023.116.004.237.012.452.02l3.172-.024c.05.008.098.016.234.02.32-.008.555-.012.79-.02m0 0" fill="#2563EB"/>
  </g>
</svg>
